<svg width="240" height="72" viewBox="0 0 240 72" fill="none" xmlns="http://www.w3.org/2000/svg">
<g clip-path="url(#clip0_123:63)">
<path d="M231.461 71.7012H8.40711C3.77244 71.7012 0 67.8867 0 63.2172V8.4715C0 3.80017 3.77244 0 8.40711 0H231.461C236.094 0 240 3.80017 240 8.4715V63.2172C240 67.8867 236.094 71.7012 231.461 71.7012Z" fill="black"/>
<path d="M238.279 63.2193C238.279 67.0123 235.232 70.0847 231.463 70.0847H8.40713C4.64002 70.0847 1.58224 67.0123 1.58224 63.2193V8.47006C1.58224 4.67886 4.64002 1.5957 8.40713 1.5957H231.461C235.232 1.5957 238.277 4.67886 238.277 8.47006L238.279 63.2193Z" fill="black"/>
<path d="M53.5609 35.463C53.5093 29.6857 58.2524 26.875 58.4693 26.7442C55.7831 22.7952 51.6195 22.2557 50.1564 22.2126C46.6595 21.8416 43.2675 24.3224 41.4862 24.3224C39.6693 24.3224 36.9262 22.2485 33.9698 22.3094C30.1653 22.3686 26.6062 24.5895 24.6542 28.0384C20.6258 35.0705 23.6302 45.4044 27.4898 51.0885C29.4204 53.8723 31.6764 56.9806 34.6293 56.8712C37.5182 56.7511 38.5973 55.0142 42.0835 55.0142C45.5378 55.0142 46.5511 56.8712 49.5627 56.8013C52.6631 56.7511 54.6151 54.005 56.4782 51.1961C58.7093 48.0054 59.6053 44.8631 59.6409 44.7017C59.568 44.6766 53.6195 42.3876 53.5609 35.463Z" fill="white"/>
<path d="M47.872 18.4737C49.4258 16.5145 50.4889 13.849 50.1938 11.144C47.9449 11.2444 45.1325 12.7125 43.5129 14.6287C42.08 16.3173 40.8 19.085 41.1307 21.6877C43.6569 21.8777 46.2507 20.4025 47.872 18.4737Z" fill="white"/>
<path d="M95.3689 56.4717H91.3316L89.12 49.4647H81.4329L79.3262 56.4717H75.3956L83.0116 32.6167H87.7156L95.3689 56.4717ZM88.4534 46.5249L86.4534 40.2959C86.2418 39.6596 85.8453 38.161 85.2605 35.802H85.1893C84.9565 36.8166 84.5813 38.3152 84.0658 40.2959L82.1013 46.5249H88.4534Z" fill="white"/>
<path d="M114.955 47.6597C114.955 50.5851 114.171 52.8974 112.603 54.595C111.198 56.1061 109.454 56.8607 107.372 56.8607C105.125 56.8607 103.511 56.0469 102.528 54.4193H102.457V63.4805H98.6667V44.9332C98.6667 43.0941 98.6187 41.2065 98.5262 39.2706H101.86L102.071 41.997H102.142C103.406 39.9428 105.324 38.9175 107.899 38.9175C109.911 38.9175 111.591 39.7187 112.935 41.3231C114.283 42.9292 114.955 45.0408 114.955 47.6597ZM111.093 47.7995C111.093 46.1252 110.72 44.745 109.97 43.6587C109.15 42.5258 108.05 41.9594 106.67 41.9594C105.735 41.9594 104.885 42.2749 104.126 42.8969C103.365 43.5243 102.868 44.3435 102.635 45.358C102.517 45.8313 102.459 46.2185 102.459 46.5232V49.3912C102.459 50.6424 102.839 51.6982 103.6 52.5604C104.361 53.4226 105.349 53.8528 106.565 53.8528C107.993 53.8528 109.104 53.2972 109.899 52.1894C110.695 51.0798 111.093 49.6171 111.093 47.7995Z" fill="white"/>
<path d="M134.576 47.6597C134.576 50.5851 133.792 52.8974 132.222 54.595C130.82 56.1061 129.076 56.8607 126.994 56.8607C124.747 56.8607 123.132 56.0469 122.151 54.4193H122.08V63.4805H118.29V44.9332C118.29 43.0941 118.242 41.2065 118.149 39.2706H121.483L121.694 41.997H121.765C123.028 39.9428 124.946 38.9175 127.522 38.9175C129.532 38.9175 131.212 39.7187 132.56 41.3231C133.902 42.9292 134.576 45.0408 134.576 47.6597ZM130.715 47.7995C130.715 46.1252 130.34 44.745 129.589 43.6587C128.77 42.5258 127.673 41.9594 126.292 41.9594C125.355 41.9594 124.507 42.2749 123.746 42.8969C122.985 43.5243 122.489 44.3435 122.256 45.358C122.14 45.8313 122.08 46.2185 122.08 46.5232V49.3912C122.08 50.6424 122.46 51.6982 123.218 52.5604C123.979 53.4208 124.967 53.8528 126.187 53.8528C127.614 53.8528 128.725 53.2972 129.52 52.1894C130.316 51.0798 130.715 49.6171 130.715 47.7995Z" fill="white"/>
<path d="M156.514 49.7819C156.514 51.8111 155.815 53.462 154.412 54.7365C152.871 56.1293 150.725 56.8248 147.968 56.8248C145.422 56.8248 143.381 56.33 141.836 55.3388L142.715 52.1534C144.379 53.168 146.204 53.6771 148.194 53.6771C149.621 53.6771 150.732 53.3508 151.531 52.7019C152.325 52.0531 152.722 51.1819 152.722 50.0956C152.722 49.1276 152.395 48.312 151.739 47.6506C151.086 46.9892 149.996 46.3743 148.475 45.8061C144.332 44.2484 142.263 41.9665 142.263 38.9658C142.263 37.0048 142.988 35.3969 144.441 34.1457C145.888 32.8927 147.819 32.2671 150.233 32.2671C152.386 32.2671 154.174 32.6453 155.602 33.4L154.654 36.5154C153.321 35.784 151.813 35.4184 150.126 35.4184C148.793 35.4184 147.751 35.75 147.004 36.4096C146.373 36.9994 146.057 37.7182 146.057 38.5696C146.057 39.5125 146.418 40.2923 147.143 40.9053C147.774 41.4717 148.921 42.0848 150.585 42.7462C152.62 43.5726 154.116 44.5388 155.077 45.6465C156.036 46.7507 156.514 48.1328 156.514 49.7819Z" fill="white"/>
<path d="M169.045 42.1389H164.868V50.4903C164.868 52.6144 165.604 53.6756 167.079 53.6756C167.756 53.6756 168.318 53.6164 168.763 53.4981L168.868 56.4002C168.121 56.6817 167.138 56.8233 165.92 56.8233C164.423 56.8233 163.253 56.3626 162.409 55.443C161.568 54.5217 161.145 52.9765 161.145 50.8057V42.1353H158.656V39.2672H161.145V36.1177L164.868 34.9849V39.2672H169.045V42.1389Z" fill="white"/>
<path d="M187.895 47.7292C187.895 50.3732 187.145 52.544 185.648 54.2415C184.078 55.9892 181.995 56.8604 179.397 56.8604C176.894 56.8604 174.901 56.0233 173.415 54.3491C171.929 52.6748 171.186 50.5614 171.186 48.0142C171.186 45.3488 171.95 43.1655 173.484 41.4679C175.015 39.7686 177.081 38.9189 179.678 38.9189C182.181 38.9189 184.196 39.7561 185.716 41.4321C187.17 43.0579 187.895 45.157 187.895 47.7292ZM183.963 47.8529C183.963 46.2665 183.627 44.906 182.946 43.7713C182.151 42.3982 181.015 41.7135 179.543 41.7135C178.02 41.7135 176.862 42.4 176.068 43.7713C175.387 44.9078 175.051 46.2898 175.051 47.9246C175.051 49.511 175.387 50.8715 176.068 52.0044C176.887 53.3775 178.032 54.0622 179.509 54.0622C180.956 54.0622 182.092 53.3632 182.912 51.9686C183.611 50.8124 183.963 49.4375 183.963 47.8529Z" fill="white"/>
<path d="M200.215 42.6316C199.84 42.5617 199.44 42.5258 199.02 42.5258C197.687 42.5258 196.656 43.0331 195.931 44.0495C195.3 44.9458 194.983 46.0786 194.983 47.4463V56.4717H191.195L191.23 44.6876C191.23 42.7051 191.182 40.9 191.088 39.2724H194.389L194.528 42.5635H194.633C195.033 41.4324 195.664 40.5218 196.528 39.8388C197.372 39.224 198.284 38.9175 199.268 38.9175C199.618 38.9175 199.934 38.9426 200.215 38.9874V42.6316Z" fill="white"/>
<path d="M217.166 47.0574C217.166 47.7422 217.122 48.3193 217.028 48.7908H205.657C205.701 50.4901 206.251 51.7897 207.307 52.686C208.265 53.4872 209.504 53.8887 211.026 53.8887C212.709 53.8887 214.245 53.6181 215.627 53.0749L216.22 55.7279C214.606 56.4377 212.7 56.7908 210.501 56.7908C207.856 56.7908 205.78 56.0057 204.268 54.4373C202.761 52.8688 202.005 50.7626 202.005 48.1204C202.005 45.5266 202.708 43.3666 204.114 41.644C205.586 39.8048 207.575 38.8853 210.078 38.8853C212.537 38.8853 214.398 39.8048 215.662 41.644C216.663 43.1049 217.166 44.9117 217.166 47.0574ZM213.552 46.0661C213.577 44.9333 213.33 43.9545 212.816 43.1282C212.16 42.0652 211.152 41.5346 209.796 41.5346C208.556 41.5346 207.548 42.0527 206.779 43.0923C206.148 43.9187 205.772 44.9099 205.657 46.0643H213.552V46.0661Z" fill="white"/>
<path d="M87.2 17.9417C87.2 20.0516 86.5725 21.6397 85.3191 22.7063C84.1582 23.6904 82.5085 24.1833 80.3716 24.1833C79.312 24.1833 78.4054 24.1367 77.6462 24.0435V12.5158C78.6365 12.3544 79.7031 12.272 80.8551 12.272C82.8907 12.272 84.4249 12.7183 85.4596 13.611C86.6187 14.6202 87.2 16.0632 87.2 17.9417ZM85.2356 17.9937C85.2356 16.626 84.8765 15.5774 84.1582 14.846C83.44 14.1165 82.3911 13.7508 81.0098 13.7508C80.4231 13.7508 79.9236 13.7902 79.5094 13.8727V22.6364C79.7387 22.6722 80.1582 22.6884 80.768 22.6884C82.1938 22.6884 83.2942 22.2886 84.0694 21.4892C84.8445 20.6897 85.2356 19.5246 85.2356 17.9937Z" fill="white"/>
<path d="M97.616 19.7842C97.616 21.0838 97.248 22.1485 96.512 22.9839C95.7405 23.8425 94.7182 24.2709 93.4418 24.2709C92.2116 24.2709 91.232 23.8604 90.5014 23.0359C89.7725 22.2131 89.408 21.1752 89.408 19.924C89.408 18.6155 89.7831 17.5417 90.5369 16.7082C91.2907 15.8747 92.304 15.457 93.5805 15.457C94.8107 15.457 95.7991 15.8675 96.5476 16.6903C97.2587 17.4898 97.616 18.5223 97.616 19.7842ZM95.6836 19.8451C95.6836 19.0654 95.5165 18.3968 95.184 17.8393C94.7929 17.1653 94.2365 16.8283 93.5129 16.8283C92.7645 16.8283 92.1956 17.1653 91.8045 17.8393C91.4702 18.3968 91.3049 19.0762 91.3049 19.8792C91.3049 20.659 91.472 21.3276 91.8045 21.885C92.208 22.559 92.7698 22.896 93.4951 22.896C94.2062 22.896 94.7645 22.5537 95.1662 21.8671C95.5111 21.2989 95.6836 20.6249 95.6836 19.8451Z" fill="white"/>
<path d="M111.582 15.6294L108.96 24.0794H107.253L106.167 20.4101C105.892 19.4941 105.668 18.5835 105.493 17.6801H105.46C105.298 18.6086 105.074 19.5174 104.786 20.4101L103.632 24.0794H101.906L99.44 15.6294H101.355L102.302 19.6465C102.532 20.5965 102.72 21.5017 102.871 22.3586H102.905C103.044 21.6523 103.273 20.7524 103.596 19.6644L104.786 15.6312H106.304L107.444 19.5783C107.719 20.5409 107.943 21.4677 108.116 22.3603H108.167C108.293 21.491 108.484 20.5642 108.736 19.5783L109.753 15.6312H111.582V15.6294Z" fill="white"/>
<path d="M121.241 24.0791H119.378V19.2393C119.378 17.7479 118.816 17.0022 117.689 17.0022C117.136 17.0022 116.69 17.2065 116.343 17.617C116 18.0275 115.826 18.5115 115.826 19.0654V24.0773H113.963V18.0437C113.963 17.3016 113.94 16.4967 113.895 15.6255H115.532L115.62 16.9466H115.671C115.888 16.5361 116.212 16.1974 116.636 15.9267C117.141 15.6112 117.707 15.4517 118.325 15.4517C119.108 15.4517 119.758 15.7062 120.276 16.2171C120.919 16.8427 121.241 17.7766 121.241 19.017V24.0791Z" fill="white"/>
<path d="M126.379 24.0792H124.517V11.752H126.379V24.0792Z" fill="white"/>
<path d="M137.348 19.7842C137.348 21.0838 136.98 22.1485 136.244 22.9839C135.472 23.8425 134.448 24.2709 133.173 24.2709C131.941 24.2709 130.962 23.8604 130.233 23.0359C129.504 22.2131 129.14 21.1752 129.14 19.924C129.14 18.6155 129.515 17.5417 130.268 16.7082C131.022 15.8747 132.036 15.457 133.31 15.457C134.542 15.457 135.529 15.8675 136.279 16.6903C136.99 17.4898 137.348 18.5223 137.348 19.7842ZM135.413 19.8451C135.413 19.0654 135.246 18.3968 134.914 17.8393C134.524 17.1653 133.966 16.8283 133.244 16.8283C132.494 16.8283 131.925 17.1653 131.536 17.8393C131.202 18.3968 131.036 19.0762 131.036 19.8792C131.036 20.659 131.204 21.3276 131.536 21.885C131.94 22.559 132.501 22.896 133.227 22.896C133.938 22.896 134.494 22.5537 134.896 21.8671C135.243 21.2989 135.413 20.6249 135.413 19.8451Z" fill="white"/>
<path d="M146.364 24.0791H144.692L144.553 23.1058H144.501C143.929 23.8819 143.113 24.2709 142.053 24.2709C141.262 24.2709 140.622 24.0146 140.14 23.5055C139.703 23.043 139.484 22.4676 139.484 21.7847C139.484 20.7522 139.911 19.9652 140.77 19.4203C141.627 18.8754 142.832 18.6083 144.384 18.6208V18.4631C144.384 17.3499 143.804 16.7943 142.644 16.7943C141.817 16.7943 141.088 17.004 140.459 17.4199L140.08 16.1866C140.859 15.7008 141.82 15.457 142.955 15.457C145.145 15.457 146.244 16.6222 146.244 18.9525V22.0643C146.244 22.9086 146.284 23.5808 146.364 24.0791ZM144.43 21.1752V19.872C142.375 19.8362 141.348 20.4044 141.348 21.5749C141.348 22.0159 141.465 22.3457 141.705 22.5662C141.945 22.7867 142.251 22.896 142.615 22.896C143.024 22.896 143.406 22.7652 143.755 22.5053C144.105 22.2436 144.32 21.9119 144.4 21.505C144.42 21.4136 144.43 21.3025 144.43 21.1752Z" fill="white"/>
<path d="M156.951 24.0792H155.298L155.211 22.7222H155.159C154.631 23.7547 153.732 24.271 152.468 24.271C151.458 24.271 150.617 23.8713 149.95 23.0718C149.284 22.2723 148.951 21.2344 148.951 19.96C148.951 18.5923 149.312 17.4845 150.037 16.6384C150.74 15.8497 151.6 15.4553 152.624 15.4553C153.749 15.4553 154.537 15.8371 154.985 16.6025H155.02V11.752H156.885V21.8027C156.885 22.6254 156.907 23.3837 156.951 24.0792ZM155.02 20.5156V19.1067C155.02 18.8629 155.003 18.6657 154.969 18.5152C154.864 18.0635 154.638 17.6834 154.295 17.3769C153.948 17.0704 153.531 16.9162 153.049 16.9162C152.354 16.9162 151.81 17.1941 151.41 17.7516C151.013 18.309 150.812 19.0207 150.812 19.89C150.812 20.7254 151.003 21.4029 151.385 21.9246C151.788 22.4803 152.332 22.7581 153.013 22.7581C153.625 22.7581 154.114 22.5269 154.485 22.0626C154.844 21.6342 155.02 21.1179 155.02 20.5156Z" fill="white"/>
<path d="M172.885 19.7842C172.885 21.0838 172.517 22.1485 171.781 22.9839C171.01 23.8425 169.989 24.2709 168.711 24.2709C167.483 24.2709 166.503 23.8604 165.771 23.0359C165.042 22.2131 164.677 21.1752 164.677 19.924C164.677 18.6155 165.052 17.5417 165.806 16.7082C166.56 15.8747 167.573 15.457 168.852 15.457C170.08 15.457 171.07 15.8675 171.817 16.6903C172.528 17.4898 172.885 18.5223 172.885 19.7842ZM170.955 19.8451C170.955 19.0654 170.788 18.3968 170.455 17.8393C170.062 17.1653 169.508 16.8283 168.782 16.8283C168.036 16.8283 167.467 17.1653 167.074 17.8393C166.74 18.3968 166.574 19.0762 166.574 19.8792C166.574 20.659 166.741 21.3276 167.074 21.885C167.477 22.559 168.039 22.896 168.764 22.896C169.476 22.896 170.036 22.5537 170.437 21.8671C170.78 21.2989 170.955 20.6249 170.955 19.8451Z" fill="white"/>
<path d="M182.903 24.0791H181.042V19.2393C181.042 17.7479 180.48 17.0022 179.351 17.0022C178.798 17.0022 178.352 17.2065 178.007 17.617C177.662 18.0275 177.49 18.5115 177.49 19.0654V24.0773H175.625V18.0437C175.625 17.3016 175.604 16.4967 175.559 15.6255H177.195L177.282 16.9466H177.333C177.552 16.5361 177.876 16.1974 178.299 15.9267C178.805 15.6112 179.369 15.4517 179.989 15.4517C180.77 15.4517 181.42 15.7062 181.938 16.2171C182.583 16.8427 182.903 17.7766 182.903 19.017V24.0791Z" fill="white"/>
<path d="M195.442 17.036H193.39V21.1409C193.39 22.1841 193.755 22.7058 194.476 22.7058C194.811 22.7058 195.088 22.6771 195.307 22.6179L195.355 24.043C194.987 24.1828 194.503 24.2527 193.908 24.2527C193.172 24.2527 192.599 24.0269 192.185 23.5751C191.769 23.1234 191.563 22.3634 191.563 21.2968V17.036H190.338V15.6288H191.563V14.0801L193.388 13.5244V15.6271H195.44V17.036H195.442Z" fill="white"/>
<path d="M205.305 24.0792H203.44V19.2752C203.44 17.7605 202.878 17.0023 201.753 17.0023C200.889 17.0023 200.299 17.4414 199.975 18.3198C199.92 18.5044 199.888 18.7303 199.888 18.9956V24.0774H198.027V11.752H199.888V16.8445H199.924C200.51 15.9178 201.351 15.4553 202.441 15.4553C203.212 15.4553 203.851 15.7099 204.357 16.2207C204.988 16.8571 205.305 17.8035 205.305 19.0547V24.0792Z" fill="white"/>
<path d="M215.479 19.4544C215.479 19.7914 215.454 20.0746 215.41 20.3058H209.822C209.847 21.1412 210.114 21.7775 210.631 22.2185C211.104 22.6128 211.714 22.81 212.46 22.81C213.287 22.81 214.041 22.6774 214.72 22.4103L215.012 23.7152C214.217 24.063 213.282 24.2369 212.199 24.2369C210.901 24.2369 209.879 23.8515 209.14 23.0807C208.396 22.3099 208.028 21.2756 208.028 19.9778C208.028 18.7033 208.372 17.6421 209.063 16.7961C209.785 15.8926 210.761 15.4409 211.993 15.4409C213.198 15.4409 214.114 15.8926 214.732 16.7961C215.232 17.5131 215.479 18.4004 215.479 19.4544ZM213.701 18.9686C213.716 18.4111 213.593 17.9307 213.34 17.5256C213.017 17.004 212.524 16.7423 211.858 16.7423C211.25 16.7423 210.754 16.9968 210.375 17.5077C210.066 17.9146 209.883 18.4004 209.822 18.9686H213.701Z" fill="white"/>
</g>
<defs>
<clipPath id="clip0_123:63">
<rect width="240" height="71.7012" fill="white"/>
</clipPath>
</defs>
</svg>
