<svg width="96" height="107" viewBox="0 0 96 107" fill="none" xmlns="http://www.w3.org/2000/svg">
<path d="M96 71.3404V34.694C95.9977 28.8453 92.8882 23.4422 87.8418 20.5179L56.1587 2.19582C51.1112 -0.731941 44.8899 -0.731941 39.8413 2.19582L8.15816 20.5179C3.11179 23.4422 0.00114404 28.8453 0 34.694V71.3404C0.00228808 77.1925 3.11179 82.5991 8.15816 85.5303L39.8413 103.853C44.8888 106.781 51.1101 106.781 56.1587 103.853L87.8418 85.5291C92.8882 82.5991 95.9977 77.1925 96 71.3404Z" fill="url(#paint0_linear_130:105)"/>
<path d="M72.1193 48.6982C72.1193 37.583 66.8384 31.3165 56.1462 31.3165C45.0833 31.3165 38.4696 40.458 37.2283 48.5398H36.5155C36.6643 43.2882 38.0188 38.1422 40.4762 33.5026C40.6558 29.0569 37.2111 25.3083 32.7814 25.1269C28.3517 24.9466 24.6164 28.4037 24.4356 32.8493C24.4264 33.0674 24.4264 33.2844 24.4356 33.5026L24.2114 70.599C24.2114 75.3994 28.0885 79.2904 32.8718 79.2904C37.655 79.2904 41.5322 75.3994 41.5322 70.599V53.3493C41.5322 48.8716 44.1726 44.8439 49.0302 44.8439C52.8719 44.8439 54.6543 47.0828 54.6543 51.0175V70.7046C54.6543 75.5268 58.5498 79.4351 63.3536 79.4351C68.1586 79.4351 72.0529 75.5257 72.0529 70.7046L72.1193 48.6982Z" fill="white"/>
<defs>
<linearGradient id="paint0_linear_130:105" x1="47.9998" y1="106.049" x2="47.9998" y2="-0.000575213" gradientUnits="userSpaceOnUse">
<stop stop-color="#4359EC"/>
<stop offset="0.17" stop-color="#466BEB"/>
<stop offset="0.53" stop-color="#4E9BE7"/>
<stop offset="1" stop-color="#5AE5E1"/>
</linearGradient>
</defs>
</svg>
