<svg width="110" height="63" viewBox="0 0 110 63" fill="none" xmlns="http://www.w3.org/2000/svg">
<path d="M10.6395 57.392C10.652 58.0997 10.5064 58.8013 10.2133 59.4457C9.93486 60.0405 9.52019 60.5613 9.0029 60.9659C8.44521 61.3951 7.80992 61.7126 7.13188 61.901C6.35496 62.1197 5.55085 62.2265 4.7438 62.2182C3.78287 62.2202 2.8276 62.0709 1.91315 61.7756C1.57758 61.6677 1.25098 61.5337 0.936305 61.3748C0.727077 61.2738 0.530872 61.1478 0.352 60.9996C0.220034 60.8723 0.127312 60.7099 0.0848337 60.5316C0.0217028 60.2637 -0.00640856 59.9888 0.00122294 59.7137C-0.000971746 59.535 0.0102835 59.3564 0.0348614 59.1794C0.051032 59.06 0.0790187 58.9425 0.118444 58.8286C0.143477 58.7509 0.193274 58.6836 0.260208 58.6369C0.322784 58.5977 0.395395 58.5775 0.469221 58.5788C0.666963 58.6071 0.854441 58.6845 1.01445 58.8041C1.25677 58.9544 1.5518 59.1185 1.89953 59.2966C2.30002 59.4946 2.71608 59.6593 3.14355 59.7891C3.68025 59.9475 4.23789 60.0235 4.7974 60.0145C5.22621 60.0195 5.65384 59.9688 6.06959 59.8637C6.42148 59.7755 6.75499 59.6256 7.05464 59.4211C7.32849 59.2317 7.54983 58.976 7.69799 58.6778C7.85554 58.3441 7.93274 57.9781 7.92336 57.6092C7.93566 57.2267 7.82094 56.8509 7.59713 56.5405C7.3602 56.2336 7.06843 55.9732 6.73659 55.7727C6.35537 55.5378 5.95285 55.3394 5.53437 55.1802C5.0891 55.0076 4.62988 54.8258 4.15675 54.6349C3.68323 54.4457 3.22032 54.2309 2.77006 53.9916C2.32723 53.7579 1.91972 53.4627 1.55966 53.1147C1.19712 52.761 0.905097 52.3416 0.699116 51.8788C0.469325 51.3352 0.358405 50.7487 0.373797 50.1587C0.372319 49.5764 0.488872 48.9999 0.716393 48.4639C0.947493 47.9195 1.2985 47.4344 1.74324 47.0445C2.24562 46.6116 2.82696 46.2799 3.45525 46.0677C4.22733 45.8103 5.03784 45.6874 5.85151 45.7042C6.25432 45.7042 6.65644 45.7376 7.05373 45.8041C7.42094 45.8631 7.78375 45.9469 8.13964 46.0549C8.42398 46.1398 8.70058 46.2486 8.96654 46.3802C9.14755 46.4685 9.32082 46.5719 9.48451 46.6892C9.57584 46.7523 9.65499 46.8314 9.71807 46.9227C9.75814 46.9927 9.78637 47.0689 9.80165 47.1481C9.81862 47.2317 9.83527 47.3347 9.85163 47.4571C9.8702 47.6078 9.87871 47.7596 9.87708 47.9114C9.8783 48.076 9.86979 48.2404 9.85163 48.4039C9.84036 48.5216 9.81223 48.6369 9.76804 48.7465C9.7391 48.8221 9.69008 48.8884 9.62628 48.9383C9.57324 48.9761 9.50969 48.9964 9.44453 48.9964C9.28645 48.9744 9.13679 48.9118 9.01017 48.8147C8.7743 48.6673 8.52869 48.5362 8.27503 48.4221C7.93099 48.267 7.57666 48.1359 7.21457 48.0296C6.76095 47.9014 6.29103 47.8401 5.8197 47.8478C5.40231 47.8411 4.9861 47.8944 4.58384 48.0059C4.26292 48.0942 3.96415 48.249 3.70694 48.4603C3.48346 48.6487 3.30627 48.8859 3.189 49.1536C3.07066 49.4278 3.0109 49.7237 3.0136 50.0223C3.00082 50.4128 3.11813 50.7963 3.3471 51.1128C3.58634 51.4231 3.88086 51.6865 4.21582 51.8897C4.60239 52.1278 5.01036 52.3291 5.4344 52.4913C5.89057 52.6694 6.35553 52.853 6.82927 53.042C7.30301 53.231 7.7707 53.443 8.23232 53.6781C8.6801 53.9022 9.0935 54.1892 9.45997 54.5305C9.82186 54.8718 10.1141 55.2801 10.3205 55.7327C10.5457 56.2562 10.6545 56.8223 10.6395 57.392Z" fill="#929497"/>
<path d="M16.4507 41.3704C16.5061 41.8407 16.3757 42.3141 16.0872 42.6898C15.694 42.9676 15.2128 43.0924 14.7342 43.0406C14.2647 43.0916 13.7927 42.9698 13.4065 42.698C13.1209 42.3307 12.9904 41.8662 13.043 41.404C12.9876 40.9336 13.1181 40.4602 13.4065 40.0846C13.7996 39.8064 14.2809 39.6816 14.7596 39.7338C15.2291 39.6829 15.701 39.8047 16.0872 40.0764C16.3727 40.4437 16.5031 40.9081 16.4507 41.3704ZM16.1335 61.4792C16.1363 61.5595 16.113 61.6385 16.0672 61.7046C16.0098 61.7753 15.9349 61.8297 15.85 61.8626C15.7161 61.9155 15.5754 61.9492 15.432 61.9626C15.2048 61.9875 14.9764 61.9987 14.7478 61.9963C14.5247 61.9985 14.3016 61.9873 14.0799 61.9626C13.934 61.9483 13.7907 61.9146 13.6537 61.8626C13.567 61.833 13.4913 61.778 13.4365 61.7046C13.3958 61.6366 13.3756 61.5583 13.3784 61.4792V46.4483C13.3779 46.372 13.398 46.2969 13.4365 46.2311C13.489 46.1533 13.5651 46.0947 13.6537 46.0638C13.7907 46.012 13.934 45.9784 14.0799 45.9639C14.3016 45.9393 14.5247 45.928 14.7478 45.9303C14.9764 45.9278 15.2048 45.939 15.432 45.9639C15.5754 45.9776 15.716 46.0112 15.85 46.0638C15.9367 46.098 16.012 46.156 16.0672 46.2311C16.1105 46.2952 16.1336 46.3709 16.1335 46.4483V61.4792Z" fill="#929497"/>
<path d="M31.996 61.162C32.0725 61.2797 32.1184 61.4146 32.1295 61.5545C32.1286 61.608 32.1133 61.6602 32.0854 61.7057C32.0574 61.7513 32.0178 61.7885 31.9705 61.8135C31.8206 61.8937 31.6557 61.942 31.4862 61.9553C31.2062 61.9863 30.9246 62.0003 30.6429 61.9971C30.3091 61.9971 30.0447 61.9886 29.8496 61.9716C29.6909 61.9617 29.5339 61.9336 29.3816 61.888C29.2821 61.8591 29.1906 61.8075 29.1144 61.7372C29.0522 61.6751 28.9987 61.6048 28.9554 61.5282L25.3479 55.5652L21.7566 61.5282C21.7133 61.6047 21.6598 61.675 21.5976 61.7372C21.5214 61.8074 21.43 61.8591 21.3305 61.888C21.1811 61.9331 21.0272 61.9612 20.8716 61.9716C20.6819 61.9886 20.4314 61.9971 20.12 61.9971C19.855 62.0002 19.59 61.9862 19.3267 61.9553C19.1664 61.9435 19.011 61.895 18.8724 61.8135C18.8288 61.7865 18.7933 61.7481 18.7698 61.7025C18.7462 61.6569 18.7356 61.6058 18.7388 61.5545C18.7583 61.4125 18.813 61.2776 18.8978 61.162L23.574 53.8296L19.1478 46.7653C19.0715 46.6468 19.023 46.5126 19.006 46.3727C19.0043 46.3187 19.0173 46.2653 19.0437 46.2183C19.0701 46.1712 19.1089 46.1322 19.1559 46.1056C19.3037 46.0203 19.4698 45.9717 19.6403 45.9638C19.8571 45.9414 20.144 45.9302 20.5008 45.9302C20.8237 45.9302 21.0824 45.9387 21.2768 45.9556C21.4322 45.9657 21.5862 45.9909 21.7367 46.0311C21.8298 46.0547 21.9159 46.1005 21.9875 46.1646C22.046 46.2247 22.0964 46.2922 22.1374 46.3655L25.5614 51.9604L29.0354 46.3655C29.0797 46.3001 29.1302 46.2393 29.1863 46.1838C29.2514 46.1222 29.3279 46.074 29.4116 46.042C29.5406 45.9954 29.6755 45.9673 29.8123 45.9584C29.985 45.9414 30.2216 45.9329 30.522 45.9329C30.7869 45.9304 31.0517 45.9416 31.3153 45.9666C31.4754 45.976 31.6317 46.0187 31.7742 46.092C31.8203 46.1164 31.8577 46.1542 31.8816 46.2005C31.9055 46.2468 31.9146 46.2993 31.9078 46.3509C31.8821 46.5005 31.8251 46.6429 31.7406 46.7689L27.3479 53.7497L31.996 61.162Z" fill="#929497"/>
<path d="M44.0272 40.0016C44.0294 40.1275 44.0208 40.2534 44.0018 40.3778C43.9901 40.4557 43.9675 40.5317 43.9345 40.6032C43.9137 40.6514 43.8789 40.6922 43.8346 40.7204C43.7912 40.744 43.7422 40.7556 43.6928 40.754C43.5824 40.7486 43.4744 40.7202 43.3757 40.6704C43.2545 40.6147 43.1016 40.5541 42.9168 40.4887C42.7037 40.4143 42.4861 40.3536 42.2652 40.3069C41.9768 40.2477 41.6828 40.2197 41.3883 40.2234C40.9829 40.2119 40.5798 40.2888 40.207 40.4487C39.879 40.6035 39.6054 40.8537 39.4219 41.1666C39.1993 41.5593 39.0546 41.9912 38.9957 42.4388C38.9049 43.0606 38.863 43.6887 38.8703 44.3171V46.1045H42.5779C42.6481 46.1024 42.7175 46.1197 42.7786 46.1545C42.8406 46.1947 42.8921 46.2493 42.9286 46.3135C42.9767 46.3963 43.0105 46.4866 43.0286 46.5807C43.0525 46.7046 43.0637 46.8307 43.0622 46.9569C43.0761 47.1739 43.0299 47.3906 42.9286 47.583C42.8942 47.646 42.8434 47.6986 42.7817 47.7354C42.7201 47.7722 42.6497 47.7917 42.5779 47.792H38.8703V61.5708C38.8718 61.6386 38.8525 61.7052 38.8152 61.7619C38.7779 61.8185 38.7242 61.8625 38.6613 61.8879C38.5623 61.9287 38.4585 61.9568 38.3523 61.9715C38.1921 61.9957 38.0301 62.0069 37.868 62.0051C37.7086 62.0072 37.5493 61.996 37.3918 61.9715C37.286 61.9553 37.1824 61.9273 37.0829 61.8879C37.0155 61.864 36.959 61.8165 36.9238 61.7543C36.8959 61.6978 36.8816 61.6356 36.8821 61.5726V47.7847H34.6103C34.5362 47.7875 34.4628 47.7694 34.3985 47.7324C34.3343 47.6955 34.2817 47.6411 34.2468 47.5757C34.1511 47.3815 34.1078 47.1657 34.1214 46.9496C34.1195 46.8234 34.1308 46.6973 34.155 46.5734C34.1724 46.4805 34.203 46.3905 34.2459 46.3062C34.2794 46.2395 34.3318 46.1842 34.3967 46.1472C34.461 46.113 34.533 46.0958 34.6058 46.0972H36.8775V44.3771C36.8613 43.4668 36.9568 42.558 37.1619 41.6709C37.3115 41.0093 37.6049 40.3888 38.0216 39.8535C38.4017 39.389 38.9012 39.0368 39.4664 38.8348C40.1164 38.6118 40.8004 38.5044 41.4874 38.5177C41.8575 38.517 42.2268 38.5536 42.5897 38.6267C42.8674 38.6756 43.1391 38.7539 43.4002 38.8603C43.532 38.9133 43.6546 38.9866 43.7637 39.0775C43.8275 39.1426 43.8786 39.219 43.9145 39.3028C43.9561 39.4016 43.9843 39.5055 43.9982 39.6118C44.017 39.7409 44.0267 39.8711 44.0272 40.0016Z" fill="#929497"/>
<path d="M56.2294 61.5636C56.2322 61.6122 56.2238 61.6608 56.2049 61.7057C56.186 61.7506 56.1571 61.7905 56.1204 61.8225C56.0377 61.8888 55.9406 61.9346 55.8369 61.9562C55.6802 61.9876 55.5205 62.0017 55.3607 61.998C55.1983 62.0002 55.0361 61.9862 54.8764 61.9562C54.764 61.9379 54.6578 61.8919 54.5674 61.8225C54.5307 61.7906 54.5017 61.7506 54.4828 61.7057C54.4639 61.6608 54.4556 61.6122 54.4584 61.5636V59.877C53.822 60.5796 53.0602 61.1575 52.2121 61.5808C51.4217 61.9749 50.5508 62.1808 49.6676 62.1824C48.9461 62.1926 48.2275 62.0883 47.5386 61.8735C46.9518 61.6911 46.409 61.3898 45.9438 60.9884C45.5106 60.6039 45.169 60.1273 44.9442 59.5935C44.7032 59.0113 44.5839 58.3861 44.5934 57.7561C44.5658 57.0148 44.7352 56.2796 45.0843 55.6251C45.4334 54.9706 45.9498 54.4204 46.5808 54.0304C47.2838 53.5907 48.0581 53.277 48.8689 53.1035C49.8448 52.8885 50.842 52.7848 51.8413 52.7945H54.2466V51.4924C54.2549 50.9154 54.1874 50.3398 54.0458 49.7804C53.9305 49.3198 53.7072 48.8934 53.3943 48.5363C53.0751 48.1904 52.6728 47.9317 52.2257 47.7848C51.659 47.6045 51.0663 47.5198 50.4719 47.534C49.862 47.526 49.2543 47.6075 48.6681 47.7758C48.1859 47.9176 47.7165 48.1 47.265 48.321C46.864 48.5215 46.5326 48.7032 46.2709 48.8662C46.1058 48.9888 45.9145 49.0716 45.7121 49.1079C45.6499 49.1084 45.5882 49.0969 45.5303 49.0743C45.4709 49.0487 45.4212 49.0048 45.3885 48.9489C45.3456 48.8773 45.3172 48.7979 45.305 48.7154C45.2869 48.6021 45.2787 48.4875 45.2804 48.3728C45.276 48.1849 45.2928 47.9971 45.3304 47.813C45.3767 47.6525 45.4663 47.5079 45.5894 47.395C45.8138 47.198 46.0638 47.0324 46.3327 46.9025C46.7281 46.6964 47.1385 46.5205 47.5604 46.3763C48.0481 46.2082 48.5478 46.077 49.0552 45.9838C49.5837 45.884 50.1203 45.8335 50.6582 45.8329C51.5469 45.8112 52.433 45.9384 53.2798 46.2092C53.9339 46.4238 54.5262 46.7935 55.0063 47.2869C55.4579 47.7761 55.7819 48.3691 55.9496 49.0134C56.1486 49.7738 56.2442 50.5574 56.234 51.3433L56.2294 61.5636ZM54.2421 54.432H51.4869C50.7793 54.4221 50.073 54.495 49.3823 54.6492C48.8464 54.7666 48.3368 54.9823 47.8793 55.2853C47.5014 55.5374 47.1937 55.8813 46.9852 56.2849C46.7846 56.7014 46.6847 57.1593 46.6935 57.6216C46.6757 58.007 46.7403 58.3918 46.8829 58.7503C47.0255 59.1088 47.2428 59.4328 47.5204 59.7007C48.1666 60.2525 49.0023 60.5311 49.8503 60.4777C50.6298 60.4806 51.3951 60.2697 52.063 59.8679C52.8779 59.3514 53.6126 58.7183 54.2439 57.9887L54.2421 54.432Z" fill="#929497"/>
<path d="M70.5107 59.3258C70.5114 59.4472 70.506 59.5685 70.4944 59.6893C70.485 59.7815 70.468 59.8726 70.4435 59.9619C70.4236 60.0357 70.3929 60.1061 70.3526 60.1709C70.2714 60.282 70.1801 60.3855 70.08 60.4799C69.8556 60.6863 69.6122 60.8709 69.353 61.0315C68.9927 61.2649 68.6093 61.4607 68.2089 61.6158C67.7643 61.7891 67.3064 61.9259 66.8396 62.0247C66.3399 62.1317 65.8302 62.185 65.3193 62.1837C64.366 62.2017 63.4194 62.0226 62.5386 61.6576C61.7438 61.3164 61.0465 60.7827 60.5095 60.1046C59.9316 59.3549 59.5087 58.4977 59.2654 57.583C58.9648 56.4571 58.8214 55.295 58.8393 54.1298C58.8117 52.8515 58.9893 51.5771 59.3654 50.3551C59.6609 49.4058 60.1532 48.5296 60.8103 47.7834C61.4007 47.1301 62.1357 46.6238 62.9566 46.305C63.7962 45.9836 64.6884 45.8221 65.5873 45.8288C66.0698 45.8271 66.5512 45.8746 67.024 45.9706C67.4549 46.0578 67.8771 46.1837 68.2853 46.3468C68.6446 46.49 68.9886 46.669 69.3121 46.8811C69.5471 47.0302 69.7679 47.2006 69.9718 47.3899C70.0746 47.4879 70.1694 47.594 70.2554 47.7071C70.3063 47.7813 70.3458 47.8629 70.3726 47.9488C70.4014 48.0443 70.4209 48.1422 70.4307 48.2414C70.4416 48.3477 70.4471 48.4722 70.4471 48.6167C70.4685 48.8515 70.4191 49.0872 70.3053 49.2937C70.2732 49.3484 70.2284 49.3944 70.1746 49.428C70.1208 49.4615 70.0596 49.4816 69.9964 49.4863C69.7756 49.4551 69.5721 49.3489 69.4203 49.1856C69.142 48.9475 68.8492 48.7272 68.5434 48.5258C68.1364 48.2606 67.7022 48.0395 67.2484 47.8661C66.6687 47.6531 66.054 47.551 65.4365 47.5653C64.7824 47.5364 64.1318 47.6746 63.5459 47.9669C62.9601 48.2591 62.4583 48.6957 62.0879 49.2355C61.2122 50.6869 60.8001 52.3709 60.9065 54.0626C60.8921 54.9993 60.9987 55.9339 61.2237 56.8433C61.397 57.5576 61.7054 58.2323 62.1324 58.8306C62.5066 59.3401 63.0036 59.7465 63.5773 60.0119C64.1814 60.281 64.837 60.415 65.4983 60.4045C66.1035 60.4163 66.705 60.3085 67.2685 60.0873C67.7364 59.8995 68.1839 59.6644 68.6042 59.3858C68.9308 59.1688 69.2456 58.9346 69.5475 58.6843C69.6982 58.525 69.8931 58.4145 70.1072 58.3672C70.1706 58.3659 70.2326 58.3865 70.2827 58.4253C70.3397 58.4738 70.383 58.5365 70.4081 58.607C70.4449 58.704 70.4702 58.805 70.4834 58.9079C70.5024 59.0464 70.5115 59.186 70.5107 59.3258Z" fill="#929497"/>
<path d="M81.7841 60.6612C81.7889 60.8523 81.7694 61.0431 81.726 61.2292C81.6964 61.3573 81.6338 61.4755 81.5443 61.5718C81.4379 61.6705 81.3148 61.7496 81.1807 61.8053C81.0002 61.8832 80.8129 61.944 80.621 61.987C80.4008 62.0384 80.1777 62.0773 79.953 62.1034C79.7257 62.1309 79.497 62.1448 79.2679 62.1452C78.6203 62.1615 77.9751 62.0595 77.3641 61.8444C76.8629 61.6602 76.4193 61.3467 76.0784 60.9357C75.7216 60.4828 75.4729 59.9544 75.3513 59.3909C75.1903 58.6674 75.1146 57.9275 75.1259 57.1864V47.7849H72.8652C72.7915 47.7855 72.719 47.7665 72.6551 47.7297C72.5912 47.693 72.5382 47.6399 72.5016 47.5759C72.3998 47.3836 72.3536 47.1668 72.3681 46.9497C72.3664 46.8235 72.3777 46.6975 72.4017 46.5735C72.4196 46.4793 72.4537 46.3889 72.5025 46.3064C72.5382 46.2416 72.591 46.1878 72.6551 46.151C72.7192 46.1141 72.7921 46.0956 72.866 46.0974H75.1205V42.3898C75.1199 42.3268 75.1342 42.2645 75.1623 42.2081C75.1983 42.145 75.2538 42.0952 75.3205 42.0663C75.4183 42.0219 75.5226 41.9937 75.6294 41.9827C75.7875 41.9642 75.9464 41.9557 76.1055 41.9573C76.2701 41.9554 76.4347 41.9639 76.5982 41.9827C76.7025 41.9928 76.8043 42.0211 76.8989 42.0663C76.9633 42.0985 77.0179 42.1475 77.057 42.2081C77.0902 42.2629 77.1078 42.3257 77.1079 42.3898V46.0974H81.2834C81.3558 46.0961 81.4275 46.1133 81.4915 46.1474C81.5575 46.1855 81.6124 46.2403 81.6505 46.3064C81.6989 46.3891 81.7327 46.4794 81.7505 46.5735C81.7745 46.6975 81.7858 46.8235 81.7841 46.9497C81.7991 47.1678 81.7498 47.3855 81.6423 47.5759C81.6056 47.6387 81.5534 47.691 81.4905 47.7276C81.4276 47.7642 81.3561 47.784 81.2834 47.7849H77.1079V56.921C77.0579 57.8219 77.2269 58.7213 77.6004 59.5426C77.7823 59.8487 78.0481 60.0963 78.3663 60.256C78.6845 60.4158 79.0419 60.481 79.3961 60.4441C79.6409 60.4468 79.8851 60.4188 80.123 60.3605C80.3187 60.3124 80.5112 60.2517 80.6991 60.1787C80.8657 60.1121 81.0078 60.0515 81.1253 59.997C81.2209 59.9468 81.3263 59.9183 81.4342 59.9134C81.4861 59.9124 81.5374 59.9237 81.5842 59.9461C81.6337 59.9743 81.6722 60.0185 81.6932 60.0715C81.7253 60.1463 81.7478 60.2247 81.7605 60.3051C81.7785 60.4229 81.7864 60.5421 81.7841 60.6612Z" fill="#929497"/>
<path d="M98.1635 53.8467C98.1744 54.9715 98.0171 56.0916 97.6965 57.1698C97.4107 58.132 96.9366 59.0278 96.3016 59.8051C95.6757 60.5576 94.8841 61.155 93.9889 61.5508C92.9715 61.9869 91.8725 62.2004 90.7658 62.1768C89.7058 62.1992 88.6522 62.0089 87.6671 61.6171C86.8108 61.2653 86.0497 60.716 85.4462 60.0141C84.8269 59.2747 84.3713 58.4125 84.1095 57.4843C83.8007 56.3926 83.6516 55.2619 83.6669 54.1275C83.6557 53.0033 83.8103 51.8835 84.1258 50.8043C84.4042 49.841 84.8757 48.9444 85.5116 48.1691C86.1389 47.4228 86.9305 46.8318 87.8243 46.4425C88.849 46.011 89.9531 45.8004 91.0647 45.8246C92.1239 45.8024 93.177 45.9899 94.1634 46.3762C95.0188 46.7221 95.7782 47.2691 96.3771 47.971C96.9919 48.7135 97.4467 49.5752 97.7128 50.5018C98.027 51.5885 98.1789 52.7156 98.1635 53.8467ZM96.059 54.0285C96.0624 53.2041 95.9786 52.3817 95.8091 51.5749C95.6606 50.8417 95.3774 50.1422 94.974 49.5122C94.5803 48.9131 94.0402 48.4245 93.4047 48.0928C92.6424 47.7187 91.7997 47.538 90.9511 47.5666C90.1449 47.5463 89.3448 47.7121 88.613 48.051C87.9733 48.3599 87.4196 48.8218 87.001 49.3958C86.5663 50.0074 86.2517 50.696 86.0741 51.425C85.8682 52.2496 85.7671 53.0968 85.7733 53.9467C85.7695 54.7797 85.8533 55.6109 86.0232 56.4265C86.1697 57.1604 86.453 57.8602 86.8584 58.4893C87.2525 59.0839 87.7928 59.5671 88.4276 59.8924C89.1812 60.228 89.996 60.4043 90.8209 60.4101C91.6458 60.4158 92.4629 60.251 93.2211 59.926C93.8594 59.6185 94.4129 59.1596 94.8332 58.5893C95.2693 57.9815 95.5839 57.2953 95.76 56.5683C95.966 55.7382 96.0665 54.8855 96.059 54.0303V54.0285Z" fill="#929497"/>
<path d="M109.223 47.2173C109.223 47.3845 109.217 47.5266 109.205 47.6435C109.199 47.7402 109.179 47.8355 109.147 47.927C109.126 47.9891 109.092 48.046 109.047 48.0942C109.026 48.1142 109.001 48.1296 108.974 48.1396C108.946 48.1496 108.917 48.154 108.888 48.1524C108.768 48.1481 108.65 48.1226 108.538 48.077C108.404 48.0273 108.248 47.9742 108.07 47.9179C107.892 47.8616 107.697 47.8089 107.486 47.7598C107.256 47.7075 107.021 47.6822 106.785 47.6844C106.479 47.6854 106.178 47.7507 105.899 47.8761C105.567 48.034 105.26 48.2424 104.991 48.4941C104.622 48.8366 104.287 49.2143 103.991 49.6217C103.64 50.0894 103.253 50.6628 102.83 51.3419V61.5631C102.831 61.631 102.812 61.6976 102.775 61.7543C102.738 61.811 102.684 61.855 102.621 61.8803C102.525 61.9205 102.424 61.9486 102.321 61.9639C102.158 61.9887 101.993 61.9999 101.828 61.9975C101.669 61.9996 101.51 61.9883 101.353 61.9639C101.247 61.9478 101.144 61.9197 101.044 61.8803C100.977 61.8564 100.92 61.8089 100.885 61.7467C100.857 61.6902 100.843 61.6279 100.843 61.5649V46.4486C100.843 46.3856 100.857 46.3233 100.885 46.2668C100.921 46.2036 100.977 46.1538 101.044 46.1251C101.136 46.0819 101.235 46.0537 101.336 46.0415C101.488 46.0226 101.642 46.0141 101.795 46.016C101.951 46.0142 102.107 46.0228 102.263 46.0415C102.362 46.0512 102.458 46.0795 102.546 46.1251C102.606 46.1573 102.656 46.2067 102.688 46.2668C102.716 46.3233 102.73 46.3856 102.73 46.4486V48.8367C103.091 48.2947 103.493 47.7809 103.932 47.3C104.246 46.9569 104.599 46.6519 104.984 46.3913C105.283 46.1901 105.613 46.0405 105.961 45.9487C106.281 45.8705 106.609 45.8312 106.938 45.8315C107.082 45.8315 107.249 45.84 107.439 45.857C107.644 45.8758 107.847 45.9061 108.049 45.9479C108.247 45.9875 108.442 46.0406 108.633 46.1069C108.761 46.1459 108.883 46.2021 108.996 46.2741C109.049 46.3096 109.094 46.3549 109.13 46.4076C109.155 46.4553 109.175 46.506 109.188 46.5585C109.208 46.6407 109.219 46.7248 109.222 46.8093C109.222 46.9141 109.223 47.0501 109.223 47.2173Z" fill="#929497"/>
<path d="M52.2401 0.0639648L45.2567 10.5059C44.8361 11.0183 44.4663 11.5704 44.1526 12.1543C43.3632 13.5987 42.9143 15.2044 42.8404 16.8487H42.815C42.8205 17.0114 42.825 17.174 42.825 17.3367V17.403C42.8153 21.8546 41.0967 26.1326 38.0239 29.3536C34.9511 32.5747 30.7589 34.4929 26.3127 34.7122C21.8665 34.9316 17.5058 33.4353 14.1309 30.5323C10.756 27.6294 8.62464 23.5414 8.17682 19.1123H14.6878C15.1136 21.8036 16.5316 24.2379 18.6625 25.936C20.7935 27.6341 23.4829 28.4729 26.2013 28.2872C28.9197 28.1015 31.4702 26.9049 33.3504 24.9328C35.2306 22.9607 36.3045 20.3562 36.3604 17.632H36.3759C36.3714 17.5557 36.3714 17.4794 36.3714 17.403V17.3367C36.3763 12.9944 38.0087 8.81175 40.9465 5.6141C43.8842 2.41644 47.9138 0.436124 52.2401 0.0639648Z" fill="#0072BC"/>
<path d="M63.242 22.7441C62.2919 24.4257 60.9125 25.825 59.2446 26.7989C57.5768 27.7729 55.6803 28.2866 53.7488 28.2876C51.8174 28.2886 49.9204 27.7769 48.2515 26.8047C46.5826 25.8325 45.2018 24.4347 44.2499 22.7542C44.1302 23.3496 43.9584 23.9334 43.7365 24.4989C43.032 26.2119 42.2095 27.874 41.2748 29.4731C42.9113 31.1575 44.872 32.4927 47.0388 33.3982C49.2056 34.3038 51.5334 34.7608 53.8817 34.7418C56.23 34.7228 58.5501 34.2281 60.7019 33.2876C62.8537 32.347 64.7926 30.9802 66.4016 29.2696C65.5789 28.0583 64.8282 26.7997 64.1534 25.5003C63.708 24.6346 63.4005 23.7047 63.242 22.7441Z" fill="#FDB71A"/>
<path d="M99.2996 19.113C99.0092 22.1227 97.9283 25.0021 96.1664 27.4595C94.0412 30.4384 91.0297 32.6702 87.5613 33.8367C84.0929 35.0031 80.3447 35.0447 76.8513 33.9554C73.3579 32.8661 70.2976 30.7016 68.1069 27.7705C65.9162 24.8395 64.7069 21.2916 64.6514 17.6327L64.6469 16.8494C64.5288 14.418 63.6026 12.0955 62.0151 10.2501C60.4277 8.40474 58.2697 7.14194 55.8833 6.66184L59.6471 1.02783C62.8712 2.1951 65.678 4.28984 67.7144 7.0485C69.7508 9.80716 70.9257 13.1065 71.0914 16.5313C71.0914 16.5513 71.0969 16.6022 71.0969 16.674C71.1024 16.7303 71.1069 16.7912 71.1069 16.8466H71.1023C71.1123 17.1719 71.1123 17.6299 71.1123 17.6299C71.1758 20.3501 72.2534 22.9484 74.1337 24.9151C76.0141 26.8817 78.5615 28.0748 81.2761 28.2602C83.9907 28.4455 86.6766 27.6098 88.8068 25.9171C90.937 24.2243 92.3579 21.7966 92.7905 19.1102L99.2996 19.113Z" fill="#0072BC"/>
<path d="M82.0312 0.00343007C79.7303 0.000711386 77.452 0.456283 75.3291 1.34356C73.2061 2.23084 71.2812 3.53204 69.6665 5.17126C70.7537 6.9719 71.7024 8.8526 72.5044 10.7971C72.6117 11.0697 72.7025 11.3314 72.777 11.5858C73.9847 9.65702 75.7652 8.15408 77.8694 7.28732C79.9736 6.42055 82.2961 6.23335 84.5119 6.7519C86.7277 7.27046 88.726 8.46884 90.227 10.1793C91.7281 11.8898 92.6567 14.0267 92.8831 16.2911H99.3631C99.0877 11.881 97.1421 7.74162 93.9221 4.71563C90.7021 1.68963 86.4499 0.00455354 82.0312 0.00343007Z" fill="#ED1944"/>
<path d="M37.7545 5.11222C36.7283 6.82873 35.8307 8.61896 35.0692 10.4682C34.929 10.8312 34.8076 11.2012 34.7057 11.5768C33.4997 9.64504 31.7191 8.13934 29.6139 7.27099C27.5086 6.40263 25.1843 6.21519 22.9671 6.73496C20.7499 7.25474 18.751 8.45565 17.251 10.1692C15.751 11.8827 14.8252 14.0229 14.6033 16.2894H8.11783C8.32534 12.9497 9.49323 9.74109 11.4811 7.04945C13.4689 4.35781 16.192 2.29775 19.3229 1.11705C22.4538 -0.0636453 25.8591 -0.314699 29.1292 0.394063C32.3994 1.10283 35.3952 2.74122 37.7563 5.11222H37.7545Z" fill="#23AE49"/>
</svg>
