<svg width="43" height="43" viewBox="0 0 43 43" fill="none" xmlns="http://www.w3.org/2000/svg">
<path d="M21.5001 31.7296C27.1422 31.7296 31.716 27.1537 31.716 21.509C31.716 15.8642 27.1422 11.2883 21.5001 11.2883C15.8579 11.2883 11.2841 15.8642 11.2841 21.509C11.2841 27.1537 15.8579 31.7296 21.5001 31.7296Z" stroke="white" stroke-width="3" stroke-miterlimit="10" stroke-linecap="round" stroke-linejoin="round"/>
<path d="M41 17.4745H36.6448C35.8741 15.6276 35.8203 15.4841 35.0676 13.6372L38.1503 10.5531L32.4329 4.85104L29.3502 7.93517C27.5041 7.16414 27.3608 7.11035 25.5147 6.35724V2H17.4494V6.35724C15.6034 7.12828 15.46 7.18207 13.614 7.93517L10.5671 4.85104L4.84973 10.571L7.93245 13.6552C7.16177 15.5021 7.108 15.6455 6.35524 17.4924H2V25.5614H6.35524C7.12592 27.4083 7.17969 27.5517 7.93245 29.3986L4.84973 32.4469L10.5492 38.149L13.6319 35.0648C15.4779 35.8359 15.6213 35.8897 17.4674 36.6428V41H25.5326V36.6428C27.3787 35.8717 27.5221 35.8179 29.3681 35.0648L32.4508 38.149L38.1503 32.4469L35.0676 29.3628C35.8382 27.5159 35.892 27.3724 36.6448 25.5255H41V17.4745Z" stroke="white" stroke-width="3" stroke-miterlimit="10" stroke-linecap="round" stroke-linejoin="round"/>
</svg>
